<?xml version="1.0" standalone="no"?>
<!DOCTYPE svg PUBLIC "-//W3C//DTD SVG 20010904//EN"
 "http://www.w3.org/TR/2001/REC-SVG-20010904/DTD/svg10.dtd">
<svg version="1.0" xmlns="http://www.w3.org/2000/svg"
 width="1372.000000pt" height="1393.000000pt" viewBox="0 0 1372.000000 1393.000000"
 preserveAspectRatio="xMidYMid meet">
<metadata>
Created by potrace 1.16, written by Peter Selinger 2001-2019
</metadata>
<g transform="translate(0.000000,1393.000000) scale(0.100000,-0.100000)"
fill="#000000" stroke="none">
<path d="M11815 13886 c-159 -29 -224 -46 -348 -91 -214 -77 -494 -222 -677
-350 -41 -29 -117 -78 -169 -109 -209 -127 -530 -368 -786 -592 -128 -112
-397 -378 -701 -694 -164 -170 -401 -458 -613 -742 -327 -439 -468 -634 -598
-824 -71 -104 -168 -243 -214 -309 -47 -66 -121 -174 -166 -240 -44 -66 -139
-195 -211 -287 -72 -91 -161 -208 -198 -260 -37 -51 -91 -122 -120 -158 -118
-148 -472 -727 -553 -905 -17 -36 -39 -78 -50 -94 -12 -16 -81 -145 -155 -288
-73 -142 -159 -301 -191 -353 -32 -52 -109 -192 -170 -311 -62 -119 -137 -256
-167 -305 -29 -49 -67 -118 -82 -154 -16 -36 -90 -189 -163 -340 -74 -151
-149 -315 -168 -365 -18 -49 -61 -151 -95 -225 -34 -74 -84 -193 -112 -265
-28 -71 -62 -157 -77 -190 -15 -33 -31 -74 -35 -90 -4 -16 -36 -100 -70 -185
-35 -85 -76 -190 -91 -232 l-28 -78 -83 -46 c-109 -61 -314 -216 -386 -290
-215 -224 -292 -322 -324 -413 -12 -36 -13 -36 -66 -33 -29 2 -154 18 -278 37
-358 54 -602 69 -915 55 -361 -15 -797 -48 -875 -65 -36 -8 -157 -31 -270 -50
-113 -20 -234 -42 -270 -50 -36 -7 -105 -21 -155 -30 -49 -9 -157 -34 -240
-55 -225 -58 -443 -108 -521 -120 -107 -16 -232 -58 -239 -80 -3 -11 -24 -40
-45 -66 -63 -77 -115 -189 -114 -251 0 -60 15 -83 54 -83 45 0 81 46 154 195
74 149 74 149 172 160 82 10 199 35 479 104 252 62 317 76 505 110 63 12 214
39 335 62 263 49 302 54 560 74 234 17 883 30 845 16 -14 -5 -67 -21 -119 -36
-99 -27 -300 -102 -486 -180 -60 -26 -132 -55 -160 -64 -52 -19 -214 -87 -475
-201 -85 -37 -177 -75 -205 -85 -55 -20 -142 -72 -164 -98 -7 -10 -25 -17 -40
-17 -63 0 -125 -69 -176 -195 -22 -56 -27 -85 -26 -143 2 -132 45 -172 153
-142 42 12 47 23 93 200 16 58 36 122 47 143 22 44 99 98 180 126 31 11 128
51 215 89 285 124 307 133 418 177 61 23 155 62 210 85 240 100 396 156 510
183 39 9 108 26 155 37 105 24 306 43 371 34 l49 -7 0 -38 c0 -22 -2 -39 -4
-39 -2 0 -20 7 -39 15 -75 31 -168 14 -217 -40 -42 -45 -35 -103 23 -195 62
-98 81 -158 73 -222 -5 -36 -2 -67 10 -104 l17 -54 -29 -41 c-41 -60 -175
-180 -279 -252 -49 -34 -155 -108 -235 -165 -80 -58 -188 -126 -240 -152 -274
-135 -390 -202 -484 -278 -74 -59 -98 -100 -146 -245 -25 -78 -21 -128 13
-152 53 -37 73 -15 123 134 33 100 43 119 83 158 59 57 164 119 376 224 191
94 257 136 491 316 184 141 319 275 359 357 l27 55 54 -35 c30 -19 70 -46 89
-59 20 -13 41 -25 48 -28 8 -2 4 -19 -15 -53 -44 -83 -155 -372 -192 -504 -58
-208 -126 -625 -126 -776 0 -219 146 -423 316 -442 71 -8 168 44 259 139 82
86 118 148 140 241 45 190 -5 304 -148 343 -149 40 -316 -42 -387 -190 -38
-79 -38 -118 -1 -176 51 -79 98 -109 169 -109 131 1 289 193 252 305 -17 50
-35 65 -84 65 -88 0 -176 -76 -160 -138 9 -32 54 -31 54 1 0 30 37 65 76 73
27 5 32 2 44 -25 7 -17 9 -42 6 -56 -13 -52 -141 -155 -192 -155 -9 0 -32 8
-51 17 -42 20 -63 62 -63 128 0 64 46 112 164 171 78 39 97 45 130 39 133 -21
178 -111 137 -269 -28 -106 -46 -139 -111 -205 -110 -112 -196 -140 -285 -94
-53 28 -86 65 -123 138 -46 90 -56 142 -49 260 9 141 80 447 143 610 14 39 37
102 49 140 33 99 114 326 125 350 5 11 19 44 31 73 16 38 26 51 38 48 9 -2 33
-7 53 -11 21 -3 57 -15 80 -25 70 -32 178 -20 228 25 27 24 60 130 60 191 0
79 11 100 57 107 34 6 40 4 62 -26 14 -17 66 -72 116 -122 158 -155 239 -215
377 -276 93 -40 126 -53 225 -83 29 -9 74 -31 100 -48 80 -54 207 -88 396
-104 45 -4 67 -10 67 -19 0 -13 74 -85 88 -85 5 0 19 -10 32 -22 13 -13 62
-45 108 -73 92 -54 102 -69 138 -205 31 -116 15 -418 -30 -570 -51 -169 -172
-425 -283 -592 -120 -183 -154 -293 -132 -424 13 -75 23 -93 44 -79 12 8 16
32 19 100 4 107 24 164 95 268 73 109 184 319 237 447 131 321 164 472 164
747 l0 174 29 -21 c45 -32 93 -49 215 -77 101 -23 132 -26 341 -26 189 -1 246
2 320 17 75 16 90 17 93 5 3 -8 24 -32 48 -54 40 -38 44 -46 68 -155 14 -63
30 -146 36 -185 5 -38 17 -101 25 -140 9 -38 27 -131 41 -205 13 -74 34 -170
45 -214 21 -81 108 -319 152 -416 14 -30 53 -118 87 -195 34 -77 91 -190 126
-251 34 -60 68 -122 73 -137 6 -15 26 -52 46 -82 19 -30 48 -82 65 -114 34
-69 60 -89 84 -66 14 14 6 34 -72 193 -48 97 -109 224 -136 282 -28 58 -90
191 -139 295 -164 351 -192 434 -208 625 -5 63 -13 124 -18 135 -5 11 -14 85
-20 165 -6 80 -25 216 -43 303 -28 143 -35 163 -74 225 -51 77 -46 84 42 52
33 -12 91 -32 129 -45 39 -13 88 -31 110 -40 21 -9 80 -30 130 -45 49 -15 117
-37 150 -48 58 -20 167 -52 365 -107 52 -15 142 -41 200 -60 58 -18 193 -59
300 -90 107 -31 308 -94 445 -141 138 -47 294 -96 348 -110 54 -14 136 -40
182 -59 47 -20 153 -53 237 -76 84 -22 239 -66 343 -96 252 -73 345 -97 500
-129 120 -25 136 -26 209 -14 92 13 231 68 296 115 25 18 77 49 117 69 39 19
99 53 132 74 33 22 86 50 118 62 32 13 93 41 136 62 42 21 119 53 171 72 90
32 210 103 231 135 5 9 20 42 32 75 23 58 87 176 169 311 81 134 206 240 386
331 59 30 112 63 118 75 8 13 9 46 5 92 -5 55 -1 106 18 212 25 146 39 186 77
220 30 27 50 68 50 102 0 42 61 160 114 222 81 93 81 91 81 311 1 202 11 301
45 430 41 157 72 324 66 360 -4 19 -7 42 -7 50 -1 22 122 301 171 386 50 87
57 134 59 368 3 279 -19 365 -187 741 -26 57 -27 70 -32 265 -5 191 -7 208
-29 250 -13 25 -34 66 -47 92 -69 137 -146 237 -335 434 -112 118 -118 126
-188 269 -57 116 -86 162 -134 215 -34 36 -91 101 -127 144 -36 43 -101 109
-145 146 -150 128 -171 154 -201 255 -43 143 -37 285 21 495 56 201 67 372 32
480 -9 25 -27 87 -41 138 -14 51 -33 106 -42 122 -16 27 -16 33 -1 105 9 41
17 93 17 114 0 71 23 156 76 281 88 208 104 278 111 475 5 144 3 176 -11 209
-16 38 -16 39 40 213 51 160 59 177 95 211 47 43 84 112 127 234 40 113 56
228 48 353 -7 108 3 153 57 260 38 77 66 179 73 269 6 77 4 91 -37 226 -48
160 -50 181 -31 357 18 167 2 418 -33 513 -48 133 -142 269 -279 404 -127 123
-204 182 -301 227 -92 43 -198 47 -380 15z m-5346 -11221 c23 -44 59 -82 111
-117 21 -14 7 -13 -90 7 -63 13 -164 33 -225 45 -158 31 -232 52 -208 61 10 4
77 12 148 19 107 10 209 23 235 29 3 0 16 -19 29 -44z"/>
</g>
</svg>
